HIERARCHY
ROOT joint_Root
{
	OFFSET 0.0 0.0 0.0
	CHANNELS 6 Xposition Yposition Zposition Zrotation Xrotation Yrotation 
	JOINT Hips
	{
		OFFSET 4.5925 91.4895 -427.239
		CHANNELS 6 Xposition Yposition Zposition Zrotation Xrotation Yrotation 
		JOINT Spine
		{
			OFFSET 15.7357 0.0 0.0
			CHANNELS 6 Xposition Yposition Zposition Zrotation Xrotation Yrotation 
			JOINT Chest
			{
				OFFSET 8.98455 -0.406207 0.0
				CHANNELS 6 Xposition Yposition Zposition Zrotation Xrotation Yrotation 
				JOINT Neck
				{
					OFFSET 16.3773 0.0 0.0
					CHANNELS 6 Xposition Yposition Zposition Zrotation Xrotation Yrotation 
					JOINT Head
					{
						OFFSET 6.45672 0.0 0.0
						CHANNELS 6 Xposition Yposition Zposition Zrotation Xrotation Yrotation 
						End Site
						{
							OFFSET 0.0 0.0 0.0
						}
					}
				}
				JOINT Shoulder_L
				{
					OFFSET 12.9942 -0.242716 4.98039
					CHANNELS 6 Xposition Yposition Zposition Zrotation Xrotation Yrotation 
					JOINT UpperArm_L
					{
						OFFSET 5.34809 0.0 0.0
						CHANNELS 6 Xposition Yposition Zposition Zrotation Xrotation Yrotation 
						JOINT LowerArm_L
						{
							OFFSET 24.3286 1.87007e-05 0.0
							CHANNELS 6 Xposition Yposition Zposition Zrotation Xrotation Yrotation 
							JOINT Hand_L
							{
								OFFSET 22.2916 0.0 0.0
								CHANNELS 6 Xposition Yposition Zposition Zrotation Xrotation Yrotation 
								End Site
								{
									OFFSET 0.0 0.0 0.0
								}
							}
						}
					}
				}
				JOINT Shoulder_R
				{
					OFFSET 12.9945 -0.242716 -4.98039
					CHANNELS 6 Xposition Yposition Zposition Zrotation Xrotation Yrotation 
					JOINT UpperArm_R
					{
						OFFSET -5.34813 0.0 0.0
						CHANNELS 6 Xposition Yposition Zposition Zrotation Xrotation Yrotation 
						JOINT LowerArm_R
						{
							OFFSET -24.3289 0.000322201 0.0
							CHANNELS 6 Xposition Yposition Zposition Zrotation Xrotation Yrotation 
							JOINT Hand_R
							{
								OFFSET -22.2915 -0.000108084 0.0
								CHANNELS 6 Xposition Yposition Zposition Zrotation Xrotation Yrotation 
								End Site
								{
									OFFSET 0.0 0.0 0.0
								}
							}
						}
					}
				}
			}
		}
		JOINT UpperLeg_L
		{
			OFFSET -2.19248 -6.46944 0.0
			CHANNELS 6 Xposition Yposition Zposition Zrotation Xrotation Yrotation 
			JOINT LowerLeg_L
			{
				OFFSET 39.0811 0.0 -1.23785e-05
				CHANNELS 6 Xposition Yposition Zposition Zrotation Xrotation Yrotation 
				JOINT Foot_L
				{
					OFFSET 40.9854 0.0 -1.26872e-05
					CHANNELS 6 Xposition Yposition Zposition Zrotation Xrotation Yrotation 
					JOINT Toes_L
					{
						OFFSET 11.7543 0.0 0.0
						CHANNELS 6 Xposition Yposition Zposition Zrotation Xrotation Yrotation 
						End Site
						{
							OFFSET 0.0 0.0 0.0
						}
					}
				}
			}
		}
		JOINT UpperLeg_R
		{
			OFFSET -2.19251 6.46944 0.0
			CHANNELS 6 Xposition Yposition Zposition Zrotation Xrotation Yrotation 
			JOINT LowerLeg_R
			{
				OFFSET -39.0811 -0.00228153 -0.0401928
				CHANNELS 6 Xposition Yposition Zposition Zrotation Xrotation Yrotation 
				JOINT Foot_R
				{
					OFFSET -40.9854 0.0 0.0
					CHANNELS 6 Xposition Yposition Zposition Zrotation Xrotation Yrotation 
					JOINT Toes_R
					{
						OFFSET -11.7543 0.0 0.0
						CHANNELS 6 Xposition Yposition Zposition Zrotation Xrotation Yrotation 
						End Site
						{
							OFFSET 0.0 0.0 0.0
						}
					}
				}
			}
		}
	}
}
MOTION
Frames:	9
Frame Time:	0.0333333
0.000000 0.000000 0.000000 0.000000 0.000000 -0.000000 -2.313150 89.547900 0.885834 88.407400 0.265715 11.385400 15.735700 0.000005 -0.000001 94.641200 83.323500 -90.583900 8.984550 -0.406207 -0.000000 5.521470 0.998943 8.057250 16.377300 -0.000001 -0.000001 14.105100 -6.022930 -7.531160 6.456720 -0.000001 -0.000000 2.105260 -10.476000 -2.795670 12.994200 -0.242716 4.980390 -82.732200 -12.011500 -58.499800 5.348090 -0.000007 -0.000001 -48.452700 -60.645600 -93.355400 24.328600 0.000019 0.000005 12.169800 3.695920 -73.328100 22.291600 -0.000001 0.000005 41.947300 5.490930 -5.946670 12.994500 -0.242716 -4.980390 88.698800 4.622610 -74.260100 -5.348130 -0.000001 -0.000004 -63.465300 12.496100 2.329420 -24.328900 0.000322 -0.000009 -1.410160 -2.892750 -25.977200 -22.291500 -0.000108 -0.000004 16.719400 5.397070 -2.847230 -2.192480 -6.469440 -0.000000 -171.690000 -9.118110 -1.534480 39.081100 -0.000007 -0.000012 -0.295360 0.397112 36.641300 40.985400 -0.000006 -0.000013 -1.309150 6.266010 -73.392200 11.754300 -0.000000 0.000003 -0.000056 -0.000622 -16.601700 -2.192510 6.469440 -0.000001 176.569000 19.441500 -179.323000 -39.081100 -0.002282 -0.040193 -0.162304 0.233158 35.383300 -40.985400 0.000008 0.000006 5.085770 7.682080 -74.686800 -11.754300 -0.000006 -0.000006 -0.001699 -0.024878 -17.584700
0.000000 0.000000 0.000000 0.000000 0.000000 -0.000000 -2.399720 89.506100 0.934446 88.301300 -0.070283 11.346200 15.735700 0.000005 -0.000001 96.429400 83.314800 -92.337200 8.984550 -0.406207 -0.000000 5.484350 1.412700 8.107410 16.377300 -0.000001 -0.000001 14.418200 -5.748840 -8.101060 6.456720 -0.000001 -0.000000 2.127700 -10.685700 -2.473360 12.994200 -0.242716 4.980390 -82.440200 -12.083000 -57.625100 5.348090 -0.000007 -0.000001 -52.042800 -59.939400 -97.927700 24.328600 0.000019 0.000005 20.267500 5.973390 -74.261800 22.291600 -0.000001 0.000005 50.891700 5.467210 -5.268700 12.994500 -0.242716 -4.980390 88.800900 4.346680 -74.561600 -5.348130 -0.000001 -0.000004 -63.940100 10.727800 2.708260 -24.328900 0.000322 -0.000009 -0.931633 -2.028350 -24.651000 -22.291500 -0.000108 -0.000004 18.127600 5.373410 -2.094050 -2.192480 -6.469440 -0.000000 -171.666000 -8.659740 -1.594460 39.081100 -0.000007 -0.000012 -0.306788 0.409817 36.819100 40.985400 -0.000006 -0.000013 -1.603210 5.567470 -73.550900 11.754300 -0.000000 0.000003 -0.000064 -0.000701 -16.604700 -2.192510 6.469440 -0.000001 176.776000 19.418800 -179.436000 -39.081100 -0.002282 -0.040193 -0.138839 0.198951 35.541700 -40.985400 0.000008 0.000006 5.461770 7.822670 -74.848800 -11.754300 -0.000006 -0.000006 -0.001609 -0.023713 -17.537300
0.000000 0.000000 0.000000 0.000000 0.000000 -0.000000 -2.429940 89.468900 1.088780 88.455600 -0.724545 11.548000 15.735700 0.000005 -0.000001 97.650400 83.265400 -93.478300 8.984550 -0.406207 -0.000000 5.536550 1.708190 8.252400 16.377300 -0.000001 -0.000001 14.421700 -5.542650 -7.369590 6.456720 -0.000001 -0.000000 2.209180 -10.173100 -2.442340 12.994200 -0.242716 4.980390 -82.943200 -11.395100 -57.930800 5.348090 -0.000007 -0.000001 -51.073000 -58.218600 -94.807100 24.328600 0.000019 0.000005 14.022800 6.083700 -66.955600 22.291600 -0.000001 0.000005 43.053500 5.401750 -2.784460 12.994500 -0.242716 -4.980390 88.706100 4.662440 -74.471700 -5.348130 -0.000001 -0.000004 -63.712400 9.841880 2.462390 -24.328900 0.000322 -0.000009 -1.324460 -3.051050 -23.466700 -22.291500 -0.000108 -0.000004 19.701300 5.377890 -2.231520 -2.192480 -6.469440 -0.000000 -171.743000 -8.821100 -1.109560 39.081100 -0.000007 -0.000012 -0.310757 0.415695 36.780900 40.985400 -0.000006 -0.000013 -1.776840 5.127280 -73.729900 11.754300 -0.000000 0.000003 -0.000061 -0.000677 -16.603700 -2.192510 6.469440 -0.000001 176.551000 18.972600 -179.228000 -39.081100 -0.002282 -0.040193 -0.173750 0.246459 35.691100 -40.985400 0.000008 0.000006 5.198960 8.149310 -74.956800 -11.754300 -0.000006 -0.000006 -0.001501 -0.022286 -17.479300
0.000000 0.000000 0.000000 0.000000 0.000000 -0.000000 -2.465970 89.458400 1.278700 88.770000 -1.183080 11.830600 15.735700 0.000005 -0.000001 96.078400 83.170500 -91.693200 8.984550 -0.406207 -0.000000 5.780130 1.367260 8.691620 16.377300 -0.000001 -0.000001 14.075900 -5.516680 -5.900920 6.456720 -0.000001 -0.000000 2.359490 -9.528860 -2.313740 12.994200 -0.242716 4.980390 -83.765100 -10.552700 -59.183400 5.348090 -0.000007 -0.000001 -45.764000 -56.781000 -84.435100 24.328600 0.000019 0.000005 2.494650 1.703870 -55.304300 22.291600 -0.000001 0.000005 30.412200 5.248460 1.674220 12.994500 -0.242716 -4.980390 88.549400 5.118370 -74.153400 -5.348130 -0.000001 -0.000004 -62.791000 9.818390 1.112140 -24.328900 0.000322 -0.000009 -1.875330 -4.559920 -22.373800 -22.291500 -0.000108 -0.000004 19.727500 5.388440 -2.565120 -2.192480 -6.469440 -0.000000 -171.788000 -9.456110 -0.441049 39.081100 -0.000007 -0.000012 -0.310825 0.419552 36.533500 40.985400 -0.000006 -0.000013 -1.768360 5.319000 -73.774100 11.754300 -0.000000 0.000003 -0.000075 -0.000801 -16.608500 -2.192510 6.469440 -0.000001 176.282000 18.222400 -178.917000 -39.081100 -0.002282 -0.040193 -0.196764 0.277590 35.779600 -40.985400 0.000008 0.000006 4.879190 7.994320 -75.051000 -11.754300 -0.000006 -0.000006 -0.001531 -0.022688 -17.495700
0.000000 0.000000 0.000000 0.000000 0.000000 -0.000000 -2.436420 89.453500 1.392520 89.198800 -1.772930 11.882400 15.735700 0.000005 -0.000001 93.001800 83.118700 -88.291800 8.984550 -0.406207 -0.000000 5.968940 0.645647 9.375700 16.377300 -0.000001 -0.000001 13.880600 -5.795830 -3.761370 6.456720 -0.000001 -0.000000 2.215020 -8.798990 -2.535690 12.994200 -0.242716 4.980390 -84.850800 -9.517530 -61.412500 5.348090 -0.000007 -0.000001 -35.265400 -54.855300 -67.533800 24.328600 0.000019 0.000005 -4.765440 -5.191630 -42.748300 22.291600 -0.000001 0.000005 21.867600 5.022990 6.893800 12.994500 -0.242716 -4.980390 88.382200 5.581090 -73.806700 -5.348130 -0.000001 -0.000004 -61.390700 9.849400 -0.549795 -24.328900 0.000322 -0.000009 -1.825750 -4.463010 -22.264500 -22.291500 -0.000108 -0.000004 18.330600 5.378540 -2.250510 -2.192480 -6.469440 -0.000000 -171.913000 -10.593600 0.013925 39.081100 -0.000007 -0.000012 -0.302612 0.412686 36.252200 40.985400 -0.000006 -0.000013 -1.616900 5.774380 -73.767000 11.754300 -0.000000 0.000003 -0.000066 -0.000724 -16.605600 -2.192510 6.469440 -0.000001 176.013000 17.376400 -179.020000 -39.081100 -0.002282 -0.040193 -0.196424 0.274729 36.015200 -40.985400 0.000008 0.000006 4.893100 7.810330 -75.197200 -11.754300 -0.000006 -0.000006 -0.001479 -0.021986 -17.467100
0.000000 0.000000 0.000000 0.000000 0.000000 -0.000000 -2.382180 89.425000 1.438840 89.463200 -2.619680 11.809500 15.735700 0.000005 -0.000001 90.086100 82.986900 -84.889400 8.984550 -0.406207 -0.000000 6.283420 -0.045241 10.384200 16.377300 -0.000001 -0.000001 13.626900 -6.238870 -1.058030 6.456720 -0.000001 -0.000000 1.652320 -8.530980 -3.437240 12.994200 -0.242716 4.980390 -85.774800 -8.694670 -63.956500 5.348090 -0.000007 -0.000001 -26.605600 -50.788200 -49.810300 24.328600 0.000019 0.000005 -5.307450 -8.459310 -32.252700 22.291600 -0.000001 0.000005 17.799400 4.913150 9.133380 12.994500 -0.242716 -4.980390 88.261600 5.838990 -73.388700 -5.348130 -0.000001 -0.000004 -59.927000 9.922000 -2.104670 -24.328900 0.000322 -0.000009 -1.833740 -4.247800 -23.362100 -22.291500 -0.000108 -0.000004 17.475600 5.377160 -2.209420 -2.192480 -6.469440 -0.000000 -172.001000 -11.505000 0.180867 39.081100 -0.000007 -0.000012 -0.301259 0.411638 36.199300 40.985400 -0.000006 -0.000013 -1.579190 5.802970 -73.841600 11.754300 -0.000000 0.000003 -0.000068 -0.000737 -16.606100 -2.192510 6.469440 -0.000001 175.869000 16.674800 -179.346000 -39.081100 -0.002282 -0.040193 -0.206596 0.285580 36.313800 -40.985400 0.000008 0.000006 4.877730 7.976410 -75.298100 -11.754300 -0.000006 -0.000006 -0.001362 -0.020425 -17.403700
0.000000 0.000000 0.000000 0.000000 0.000000 -0.000000 -2.275450 89.398300 1.405280 89.654400 -3.939780 11.570400 15.735700 0.000005 -0.000001 88.916500 82.793400 -83.234200 8.984550 -0.406207 -0.000000 6.686120 -0.323968 11.371100 16.377300 -0.000001 -0.000001 13.247000 -6.616060 1.879170 6.456720 -0.000001 -0.000000 1.132000 -8.537270 -4.503380 12.994200 -0.242716 4.980390 -86.561100 -7.559490 -65.451400 5.348090 -0.000007 -0.000001 -25.149700 -47.640800 -37.690700 24.328600 0.000019 0.000005 -2.486240 -4.767290 -27.586100 22.291600 -0.000001 0.000005 15.128500 4.769440 11.892300 12.994500 -0.242716 -4.980390 88.185600 6.002240 -73.146100 -5.348130 -0.000001 -0.000004 -58.484600 10.469200 -3.183420 -24.328900 0.000322 -0.000009 -2.358800 -5.013980 -25.222400 -22.291500 -0.000108 -0.000004 18.000400 5.393180 -2.714820 -2.192480 -6.469440 -0.000000 -172.182000 -12.323500 0.156134 39.081100 -0.000007 -0.000012 -0.304093 0.415439 36.203900 40.985400 -0.000006 -0.000013 -1.677630 5.254430 -73.958000 11.754300 -0.000000 0.000003 -0.000063 -0.000691 -16.604300 -2.192510 6.469440 -0.000001 175.800000 15.712600 -179.946000 -39.081100 -0.002282 -0.040193 -0.255913 0.349378 36.571700 -40.985400 0.000008 0.000006 4.405490 8.540270 -75.193800 -11.754300 -0.000006 -0.000006 -0.001440 -0.021469 -17.446100
0.000000 0.000000 0.000000 0.000000 0.000000 -0.000000 -2.235760 89.349500 1.442440 89.728500 -5.175750 11.620400 15.735700 0.000005 -0.000001 90.051300 82.626400 -84.204900 8.984550 -0.406207 -0.000000 7.009270 -0.024074 11.681700 16.377300 -0.000001 -0.000001 13.158200 -6.971170 3.971620 6.456720 -0.000001 -0.000000 0.994869 -9.262600 -4.497160 12.994200 -0.242716 4.980390 -87.197300 -6.215150 -65.667400 5.348090 -0.000007 -0.000001 -27.922500 -47.596500 -34.225900 24.328600 0.000019 0.000005 -4.253290 -8.430290 -26.901000 22.291600 -0.000001 0.000005 14.355300 4.723090 12.741000 12.994500 -0.242716 -4.980390 88.146300 6.141790 -73.169500 -5.348130 -0.000001 -0.000004 -58.194300 10.254700 -2.622790 -24.328900 0.000322 -0.000009 -2.940330 -5.788700 -26.977300 -22.291500 -0.000108 -0.000004 18.977800 5.414970 -3.425810 -2.192480 -6.469440 -0.000000 -172.179000 -12.877500 0.413922 39.081100 -0.000007 -0.000012 -0.311018 0.423423 36.299100 40.985400 -0.000006 -0.000013 -1.876980 4.590510 -74.166300 11.754300 -0.000000 0.000003 -0.000066 -0.000716 -16.605200 -2.192510 6.469440 -0.000001 175.763000 14.857300 179.856000 -39.081100 -0.002282 -0.040193 -0.310472 0.419651 36.784700 -40.985400 0.000008 0.000006 3.865690 9.095200 -75.118400 -11.754300 -0.000006 -0.000006 -0.001563 -0.023111 -17.512900
0.000000 0.000000 0.000000 0.000000 0.000000 -0.000000 -2.395030 89.250400 1.530790 89.772900 -5.380210 11.908400 15.735700 0.000005 -0.000001 92.817100 82.589400 -87.074800 8.984550 -0.406207 -0.000000 7.028900 0.690264 11.429800 16.377300 -0.000001 -0.000001 13.100600 -7.477960 3.596910 6.456720 -0.000001 -0.000000 1.607310 -10.272000 -4.847750 12.994200 -0.242716 4.980390 -87.148500 -6.211200 -65.279800 5.348090 -0.000007 -0.000001 -32.601500 -48.188000 -39.653400 24.328600 0.000019 0.000005 -3.851380 -8.037220 -25.711000 22.291600 -0.000001 0.000005 15.450200 4.680260 13.512800 12.994500 -0.242716 -4.980390 88.262200 5.790890 -73.264200 -5.348130 -0.000001 -0.000004 -59.486100 9.141550 -0.540548 -24.328900 0.000322 -0.000009 -3.427670 -6.537810 -27.740100 -22.291500 -0.000108 -0.000004 20.005600 5.432800 -4.033340 -2.192480 -6.469440 -0.000000 -172.088000 -12.696400 0.645722 39.081100 -0.000007 -0.000012 -0.319504 0.430044 36.611400 40.985400 -0.000006 -0.000013 -2.081350 4.329370 -74.400300 11.754300 -0.000000 0.000003 -0.000070 -0.000762 -16.607000 -2.192510 6.469440 -0.000001 175.800000 14.602300 -179.999000 -39.081100 -0.002282 -0.040193 -0.320808 0.427139 37.190100 -40.985400 0.000008 0.000006 3.975180 8.959440 -75.413700 -11.754300 -0.000006 -0.000006 -0.001504 -0.022323 -17.480800
